<svg xmlns="http://www.w3.org/2000/svg" viewBox="0 0 64 64" role="img" aria-labelledby="title desc">
  <title id="title">Daytill mark</title>
  <desc id="desc">A countdown calendar icon with a rising sun.</desc>
  <rect width="64" height="64" rx="18" fill="#171717"/>
  <path d="M18 19h28a5 5 0 0 1 5 5v23a5 5 0 0 1-5 5H18a5 5 0 0 1-5-5V24a5 5 0 0 1 5-5Z" fill="#fff"/>
  <path d="M13 27h38" stroke="#171717" stroke-width="4"/>
  <path d="M23 13v10M41 13v10" stroke="#fff" stroke-width="5" stroke-linecap="round"/>
  <path d="M22 43a10 10 0 0 1 20 0" fill="#005ec9"/>
  <path d="M32 29v8l6 4" stroke="#171717" stroke-width="4" stroke-linecap="round" stroke-linejoin="round"/>
</svg>
